# xmcd CD database file
#
# Track frame offsets:
#	150
#	14973
#	35508
#	55500
#	78650
#	94650
#	114145
#	134418
#	163915
#	188663
#	210493
#	238660
#
# Disc length: 3439 seconds
#
# Revision: 1
# Processed by: cddbd v1.5.1PL2 Copyright (c) Steve Scherf et al.
# Submitted via: CDex 1.40Beta9
#
DISCID=9d0d6d0c
DTITLE=山下久美子 - re-SWEETS
DYEAR=1987
DGENRE=Rock
TTITLE0=そばにいたいよ
TTITLE1=HELLO! ストレンジャー
TTITLE2=DOWNTOWN SUNDOWN
TTITLE3=最後のドアーまで
TTITLE4=今宵かぎりの Cheek to Cheek
TTITLE5=Cry For The Moon
TTITLE6=瞳いっぱいの歌
TTITLE7=星になった嘘
TTITLE8=SWEET PAIN
TTITLE9=スローナンバーのあとで
TTITLE10=FLIP FLOP and FLY
TTITLE11=On Sunday's 1986
EXTD=YEAR: 1987 ID3G: 17
EXTT0=
EXTT1=
EXTT2=
EXTT3=
EXTT4=
EXTT5=
EXTT6=
EXTT7=
EXTT8=
EXTT9=
EXTT10=
EXTT11=
PLAYORDER=
